<svg width="529" height="125" viewBox="0 0 529 125" fill="none" xmlns="http://www.w3.org/2000/svg">
<g clip-path="url(#clip0_1376_100489)">
<path d="M83.6031 60.2204L41.0859 60.2204L62.3436 24.2441L83.6031 60.2204Z" fill="#FCFCFC"/>
<path d="M107.365 100.44L17.3164 100.44L34.5214 71.3232L90.1602 71.3232L107.365 100.44Z" fill="#FCFCFC"/>
</g>
<path d="M326.219 91.3467V32.3301H338.521L356.06 80.7902L373.598 32.3301H385.9V91.3467H376.923V48.1232L361.047 91.2635H351.072L335.196 48.1232V91.3467H326.219Z" fill="#FCFCFC"/>
<path d="M290.697 92.6765C273.574 92.6765 263.184 81.0394 263.184 61.9214C263.184 42.8033 273.574 31 290.697 31C307.986 31 318.293 42.8033 318.293 61.9214C318.293 81.0394 307.986 92.6765 290.697 92.6765ZM290.697 84.4474C302.168 84.4474 308.984 76.1352 308.984 61.9214C308.984 47.7075 302.168 39.2291 290.697 39.2291C279.309 39.2291 272.493 47.7075 272.493 61.9214C272.493 76.1352 279.309 84.4474 290.697 84.4474Z" fill="#FCFCFC"/>
<path d="M246.258 91.3467V32.3301H255.235V91.3467H246.258Z" fill="#FCFCFC"/>
<path d="M190.148 91.3467L209.765 61.7552L190.315 32.3301H200.871L215.418 54.773L229.714 32.3301H240.188L220.737 61.589L240.437 91.3467H229.881L215.251 68.5713L200.622 91.3467H190.148Z" fill="#FCFCFC"/>
<path d="M135 91.3467L156.279 32.3301H167.667L188.946 91.3467H179.387L173.984 75.9691H149.879L144.559 91.3467H135ZM152.705 67.8232H171.241L161.932 40.8916L152.705 67.8232Z" fill="#FCFCFC"/>
<path d="M508.505 92.344C496.535 92.344 488.805 83.3668 488.805 69.3192C488.805 55.2716 496.535 46.2944 508.505 46.2944C520.391 46.2944 528.121 55.2716 528.121 69.3192C528.121 83.3668 520.391 92.344 508.505 92.344ZM508.505 87.1073C517.149 87.1073 522.386 80.3744 522.386 69.3192C522.386 58.264 517.149 51.5311 508.505 51.5311C499.777 51.5311 494.54 58.264 494.54 69.3192C494.54 80.3744 499.777 87.1073 508.505 87.1073Z" fill="#FCFCFC"/>
<path d="M464.605 91.3466V47.292H469.343L469.593 56.0198C471.338 50.1181 474.913 47.292 480.648 47.292H484.472V52.6118H480.482C473.832 52.6118 470.092 57.1835 470.092 64.4982V91.3466H464.605Z" fill="#FCFCFC"/>
<path d="M413 91.3467V32.3301H433.697C446.664 32.3301 454.312 38.9798 454.312 49.9519C454.312 60.924 446.664 67.5738 433.697 67.5738H418.652V91.3467H413ZM418.652 62.0877H433.697C443.34 62.0877 448.327 57.8485 448.327 49.9519C448.327 41.9722 443.34 37.8161 433.697 37.8161H418.652V62.0877Z" fill="#FCFCFC"/>
<defs>
<clipPath id="clip0_1376_100489">
<rect width="90.0488" height="76.1951" fill="white" transform="translate(17.3164 24.2441)"/>
</clipPath>
</defs>
</svg>
