<svg width="11" height="11" viewBox="0 0 11 11" fill="none" xmlns="http://www.w3.org/2000/svg">
<g clip-path="url(#clip0_2109_455741)">
<path d="M2.82376 7.79579L8.24997 7.79167M5.49997 1.375C6.37906 1.375 7.11331 1.99375 7.29206 2.81921C7.52448 2.75631 7.76701 2.73981 8.00581 2.77064C8.24461 2.80147 8.47499 2.87904 8.68381 2.99891C8.89264 3.11878 9.0758 3.27861 9.22286 3.46927C9.36991 3.65993 9.47797 3.87768 9.54087 4.1101C9.60377 4.34252 9.62027 4.58506 9.58943 4.82386C9.5586 5.06266 9.48103 5.29304 9.36116 5.50186C9.24129 5.71069 9.08147 5.89385 8.89081 6.04091C8.70015 6.18796 8.48239 6.29602 8.24997 6.35892V9.625H2.74997V6.35892C2.51755 6.29596 2.29981 6.18784 2.10917 6.04073C1.91854 5.89362 1.75874 5.7104 1.63891 5.50154C1.51909 5.29268 1.44157 5.06225 1.41079 4.82343C1.38001 4.58461 1.39658 4.34207 1.45953 4.10965C1.52249 3.87723 1.63061 3.65948 1.77772 3.46885C1.92483 3.27821 2.10805 3.11842 2.31691 2.99859C2.52578 2.87876 2.7562 2.80124 2.99502 2.77047C3.23384 2.73969 3.47638 2.75625 3.70881 2.81921C3.79765 2.41018 4.02378 2.04386 4.34962 1.78113C4.67547 1.51841 5.0814 1.37509 5.49997 1.375Z" stroke="#DCC13C" stroke-width="1.2" stroke-linecap="round" stroke-linejoin="round"/>
</g>
<defs>
<clipPath id="clip0_2109_455741">
<rect width="11" height="11" fill="white"/>
</clipPath>
</defs>
</svg>
