<svg width="140" height="28" viewBox="0 0 140 28" fill="none" xmlns="http://www.w3.org/2000/svg">
<path d="M0.70459 0H28.4967V28H0.70459V0Z" fill="#FB651E"/>
<path d="M78.5361 5.54443C78.7903 5.56754 78.8365 5.86786 78.8596 6.05268C78.9289 6.99988 78.952 7.92397 78.952 8.87117C78.9982 9.77216 78.9982 10.65 78.9982 11.551C79.5064 11.1583 79.9916 10.7425 80.5922 10.5114C81.5394 10.0956 82.6945 10.0956 83.6186 10.5807C84.612 11.089 85.3051 12.0593 85.6516 13.0989C85.9751 14.0923 86.0675 15.155 85.9982 16.1946C85.9058 17.419 85.5823 18.6434 84.8662 19.6368C84.4503 20.2144 83.8959 20.7227 83.2028 20.9768C82.0939 21.3695 80.8695 21.2309 79.8761 20.6071C79.5757 20.4223 79.2985 20.1451 79.0213 19.9141C78.9058 20.2837 78.8134 20.6302 78.6979 20.9999C78.1665 20.9999 77.6583 21.0461 77.1269 20.9537C77.3348 20.122 77.3348 19.2441 77.3579 18.3893C77.4041 15.3629 77.3579 12.3365 77.3348 9.33321C77.2655 8.15499 77.3579 6.97677 77.15 5.82166C77.6351 5.68304 78.0741 5.54443 78.5361 5.54443ZM82.4173 11.7821C81.9553 11.6896 81.4932 11.6896 81.0312 11.7359C80.1995 11.8514 79.5295 12.4289 78.9982 13.0296C78.9751 13.2375 78.9982 13.4223 78.9751 13.6302V18.4355C78.952 18.5972 79.0906 18.7128 79.2061 18.8052C80.0147 19.5906 81.216 19.9603 82.3249 19.683C82.8563 19.5444 83.3183 19.1979 83.5724 18.7128C83.9652 18.0428 84.1038 17.2573 84.1731 16.4949C84.2193 15.9174 84.2886 15.3167 84.2193 14.7392C84.1962 14.0692 84.0576 13.353 83.7111 12.7755C83.4338 12.2903 82.9718 11.8976 82.4173 11.7821ZM89.3018 5.96027C89.6252 5.84476 89.9949 5.86787 90.3183 6.00648C90.6186 6.1913 90.8266 6.46852 90.9652 6.79196C91.1731 7.48503 90.6186 8.2705 89.9025 8.36291C89.348 8.43222 88.7474 8.10879 88.5856 7.55433C88.3546 6.95367 88.7012 6.2144 89.3018 5.96027ZM40.0246 7.2309C40.8101 6.69955 41.7342 6.2837 42.7044 6.2837C43.6978 6.2606 44.7144 6.32991 45.6153 6.76885C45.985 6.93057 46.3546 7.11539 46.678 7.39262C46.447 7.78536 46.1467 8.13189 45.8695 8.47842C45.4998 8.2705 45.1533 8.03948 44.7606 7.90087C43.7903 7.55433 42.6813 7.48502 41.711 7.87776C40.9025 8.20119 40.2325 8.82496 39.8167 9.58734C39.5394 10.1187 39.2853 10.6962 39.1698 11.2969C39.0774 11.8745 39.0312 12.4751 39.0081 13.0758C38.985 13.8613 38.9388 14.6698 38.985 15.4553C39.1236 16.5642 39.4932 17.6731 40.2556 18.5048C40.9025 19.2672 41.8728 19.7061 42.8662 19.7986C43.3744 19.8217 43.9058 19.8217 44.414 19.7061C45.0378 19.5675 45.5691 19.2441 46.1467 18.99C46.4701 19.3134 46.7705 19.683 47.0477 20.0758C46.6318 20.3068 46.1929 20.5378 45.7309 20.7226C44.5295 21.2078 43.1665 21.2309 41.8959 21.0923C40.9718 20.9075 40.117 20.4223 39.4008 19.8217C38.5691 19.1055 37.9685 18.1583 37.6219 17.1187C37.3678 16.4256 37.2523 15.6863 37.183 14.9702C37.1599 14.4157 37.0906 13.8844 37.1599 13.3299C37.183 12.2903 37.3447 11.2738 37.7606 10.3035C38.2226 9.10218 38.9619 7.97017 40.0246 7.2309Z" fill="#FCFCFC"/>
<path d="M8.95215 6.97672C9.06766 6.95362 9.20627 6.90742 9.32179 6.90742C9.92245 6.88432 10.5231 6.93052 11.1238 6.95362C11.2162 6.93052 11.2624 7.02293 11.2855 7.09224C12.1865 8.96352 13.0875 10.8579 14.0116 12.7292C14.2195 13.1219 14.3812 13.5147 14.6122 13.8843C14.797 13.584 14.9588 13.2606 15.1205 12.9371C16.1601 10.9272 17.1304 8.91732 18.1469 6.90742C18.8168 6.93052 19.4868 6.86121 20.1568 6.97672C20.0413 7.36946 19.8102 7.6929 19.6485 8.06254C18.3086 10.6269 16.9455 13.1912 15.6056 15.7556C15.5594 15.848 15.5363 15.9635 15.5363 16.079C15.5363 17.9041 15.5363 19.7523 15.5363 21.5774C14.8894 21.5774 14.2426 21.5774 13.5957 21.5774C13.5957 19.7985 13.5957 17.9965 13.5957 16.2176C13.5957 16.0328 13.6188 15.8249 13.5033 15.6401C12.2558 13.3068 11.0314 10.9734 9.78383 8.61699C9.5066 8.06253 9.20627 7.53118 8.95215 6.97672Z" fill="#FCFCFC"/>
<path d="M116.424 7.78537C116.956 7.62366 117.51 7.48505 118.065 7.39264C117.972 8.40914 117.903 9.42564 117.88 10.4652C118.735 10.4883 119.612 10.4883 120.467 10.5115C120.329 10.9042 120.167 11.2969 119.982 11.6666C119.243 11.6666 118.527 11.6666 117.787 11.6666C117.787 12.6138 117.787 13.561 117.787 14.5081C117.787 15.2474 117.834 16.0098 117.81 16.7491C117.834 17.6039 117.787 18.4586 117.88 19.2903C117.903 19.6369 118.226 19.891 118.527 19.9834C119.058 20.0989 119.612 20.0527 120.121 19.9372C120.259 20.2375 120.329 20.5841 120.306 20.9075C119.843 21.1616 119.289 21.2078 118.758 21.254C118.018 21.2771 117.187 21.1616 116.655 20.5841C116.216 20.1682 116.263 19.5213 116.193 18.9669C116.147 17.7656 116.17 16.5412 116.147 15.3398C116.147 14.1154 116.147 12.8679 116.147 11.6435C115.685 11.6435 115.223 11.6435 114.761 11.6435C114.738 11.2507 114.738 10.8349 114.761 10.4421C115.223 10.4421 115.662 10.4421 116.124 10.4421C116.286 9.56425 116.286 8.66326 116.424 7.78537ZM53.2626 10.2111C53.7015 10.2342 54.1405 10.2111 54.5563 10.3497C55.5266 10.6732 56.3352 11.3431 56.8435 12.221C57.2824 12.9834 57.5827 13.8382 57.6058 14.7161C57.652 15.8943 57.6982 17.1187 57.3286 18.2507C56.9821 19.3134 56.2428 20.2606 55.2263 20.792C54.2329 21.3002 53.0316 21.4157 51.9689 21.1154C50.9986 20.8613 50.1669 20.2144 49.6124 19.3827C48.9887 18.4817 48.7807 17.3959 48.7576 16.3101C48.7345 15.2705 48.7114 14.2078 49.058 13.2144C49.3814 12.2441 50.0052 11.3431 50.8831 10.7887C51.2758 10.5345 51.7147 10.3266 52.1768 10.2342C52.5464 10.188 52.9161 10.2111 53.2626 10.2111ZM52.4309 11.5511C51.8765 11.6897 51.3451 12.0131 51.0448 12.4982C50.6058 13.2144 50.5365 14.0692 50.4903 14.8778C50.4441 15.4784 50.4903 16.0791 50.5365 16.6798C50.6289 17.3959 50.7675 18.1583 51.1141 18.8052C51.4837 19.4983 52.2692 19.8448 53.0316 19.891C53.7477 19.9372 54.5332 19.7524 55.0415 19.1979C55.4573 18.7359 55.6883 18.1583 55.7807 17.5346C55.8963 16.7722 55.8732 16.0098 55.8501 15.2474C55.827 14.4619 55.7576 13.6303 55.4342 12.891C55.2494 12.4289 54.9029 12.0362 54.4639 11.8052C53.8633 11.4355 53.1009 11.3893 52.4309 11.5511ZM60.4936 10.5577C60.9788 10.3959 61.4639 10.2804 61.9722 10.188C62.1801 10.6501 62.2956 11.1583 62.3418 11.6666C62.6883 11.4817 62.9425 11.2045 63.2659 10.9966C63.9821 10.4652 64.86 10.1418 65.7609 10.188C65.9689 10.2111 66.1537 10.2573 66.3385 10.3497C66.6388 10.5114 66.9623 10.6732 67.2164 10.9042C67.4705 11.1583 67.6553 11.4817 67.8402 11.8052C68.256 11.6204 68.5563 11.2969 68.926 11.0428C69.5497 10.6039 70.2659 10.2573 71.0514 10.188C71.7675 10.1187 72.4837 10.3497 73.0151 10.8349C73.2461 11.0659 73.5002 11.2969 73.6157 11.5973C73.7312 11.8976 73.7774 12.221 73.8006 12.5445C73.9161 14.2309 73.8468 15.9405 73.9161 17.627C73.9161 18.759 73.9161 19.8679 73.9161 20.9999C73.3616 20.9999 72.8072 21.023 72.2296 20.9999C72.2296 19.3134 72.2296 17.627 72.2296 15.9405C72.2296 14.8547 72.2527 13.7689 72.1603 12.6831C72.1141 12.3365 71.9293 12.0131 71.652 11.8052C71.3286 11.5973 70.9128 11.6204 70.5431 11.6435C69.8732 11.7128 69.3418 12.1286 68.8336 12.5213C68.6025 12.7293 68.3484 12.9141 68.1174 13.122C68.0481 13.1682 68.0712 13.2837 68.0712 13.353C68.0712 15.8943 68.0712 18.4355 68.0712 20.9768C67.5167 20.9768 66.9623 20.9768 66.4078 20.9768V15.0395C66.4078 14.5544 66.4078 14.0692 66.3847 13.6072C66.3616 13.122 66.4078 12.5907 66.1768 12.1517C65.8303 11.6666 65.1603 11.5742 64.6289 11.7128C63.7973 11.9207 63.058 12.4289 62.4342 13.0065C62.3418 13.0758 62.3418 13.1913 62.3418 13.3068C62.3418 15.8712 62.3418 18.4355 62.3418 20.9999C61.8567 21.023 61.3715 21.023 60.8864 20.9999C60.8402 18.3893 60.8633 15.7557 60.794 13.122C60.7708 12.5214 60.7709 11.9207 60.7015 11.3431C60.6322 11.0659 60.5398 10.8118 60.4936 10.5577ZM88.9095 10.4652C89.4408 10.3959 89.9722 10.3035 90.5035 10.188C90.5728 11.6666 90.5497 13.1451 90.5497 14.6237C90.5497 16.7491 90.5497 18.8745 90.5497 20.9999C89.9953 21.023 89.4408 21.023 88.8864 20.9999C88.8633 17.9504 88.8864 14.924 88.8864 11.8745C88.9095 11.4124 88.8864 10.9273 88.9095 10.4652ZM110.325 10.2573C111.457 10.4652 112.428 11.5048 112.451 12.6831C112.52 14.4388 112.428 16.1946 112.451 17.9504V18.4818C112.451 18.8283 112.474 19.1748 112.566 19.5214C112.636 19.8679 112.959 20.0527 113.213 20.2606C112.982 20.5841 112.774 20.9537 112.474 21.2309C112.289 21.3926 112.058 21.2078 111.919 21.1154C111.527 20.8151 111.249 20.3761 111.018 19.9372C110.649 20.1451 110.395 20.4454 110.025 20.6534C109.424 21.0461 108.708 21.2771 107.969 21.254C107.322 21.2771 106.652 21.1616 106.074 20.8613C105.127 20.353 104.596 19.2441 104.619 18.2045C104.619 17.188 105.127 16.1946 105.936 15.594C106.906 14.8547 108.154 14.6237 109.332 14.5313C109.863 14.485 110.418 14.485 110.972 14.4619C110.995 13.9306 110.949 13.3992 110.88 12.8679C110.81 12.4289 110.603 11.9669 110.187 11.7359C109.702 11.4817 109.124 11.4586 108.57 11.5511C107.553 11.6666 106.606 12.1055 105.774 12.7062C105.543 12.3827 105.312 12.0824 105.127 11.7359C105.035 11.5742 105.173 11.4355 105.312 11.3662C106.421 10.7425 107.645 10.2111 108.939 10.2342H109.494C109.771 10.2111 110.048 10.2111 110.325 10.2573ZM109.632 15.5478C109.124 15.594 108.593 15.6171 108.107 15.7557C107.507 15.9174 106.952 16.3101 106.629 16.8415C106.444 17.1418 106.444 17.5115 106.421 17.858C106.421 18.2276 106.375 18.6435 106.513 18.99C106.652 19.3596 106.906 19.7062 107.276 19.8448C107.692 20.0296 108.177 20.0527 108.639 20.0065C109.193 19.9372 109.678 19.6369 110.094 19.3134C110.441 19.0131 110.787 18.6435 110.81 18.1583C110.88 17.3035 110.857 16.4487 110.88 15.594C110.464 15.594 110.048 15.5015 109.632 15.5478ZM127.744 10.2804C128.692 10.5115 129.546 11.089 130.101 11.8745C130.563 12.5214 130.863 13.2606 131.002 14.0461C131.117 14.7854 131.164 15.5478 131.117 16.287C131.094 17.5115 130.725 18.7359 129.985 19.7062C129.385 20.4916 128.461 20.9537 127.513 21.1385C126.358 21.3464 125.111 21.1385 124.14 20.4454C123.286 19.8448 122.754 18.8745 122.454 17.9042C122.292 17.3959 122.269 16.8877 122.223 16.3563C122.2 15.4784 122.2 14.6006 122.362 13.7458C122.593 12.7755 123.078 11.8283 123.817 11.1352C124.372 10.627 125.065 10.3035 125.804 10.2111C126.451 10.1418 127.098 10.1649 127.744 10.2804ZM125.919 11.528C125.134 11.6204 124.51 12.2441 124.256 12.9603C123.933 13.7227 123.979 14.5544 123.956 15.3629C123.979 16.1253 123.979 16.8877 124.117 17.6501C124.21 18.1583 124.372 18.6666 124.718 19.0593C125.041 19.452 125.527 19.7062 126.012 19.7986C126.197 19.8448 126.405 19.8679 126.589 19.8679H126.774L126.959 19.8448C127.352 19.7986 127.721 19.6831 128.068 19.4983C128.484 19.2672 128.784 18.8283 128.946 18.3893C129.154 17.858 129.177 17.2804 129.223 16.726C129.246 16.056 129.269 15.386 129.223 14.7161C129.177 14.023 129.084 13.3068 128.761 12.6831C128.461 12.221 128.045 11.8283 127.537 11.5973C127.051 11.4586 126.474 11.4586 125.919 11.528ZM133.959 10.5808C134.467 10.4421 134.952 10.2804 135.461 10.1649C135.738 10.6732 135.784 11.2738 135.807 11.8283C136.061 11.6435 136.269 11.3893 136.5 11.1583C137.216 10.4421 138.279 10.0032 139.296 10.188V10.3266C139.065 10.8118 138.926 11.3431 138.718 11.8514C138.695 11.9438 138.556 11.9207 138.487 11.9207C138.048 11.9207 137.563 11.9207 137.17 12.1517C136.777 12.3827 136.431 12.6831 136.154 13.0527C135.876 13.3992 135.923 13.8844 135.923 14.3002C135.9 14.9009 135.876 15.5015 135.9 16.1022C135.9 17.7194 135.9 19.3596 135.9 20.9768C135.345 20.9999 134.791 20.9999 134.236 20.9768C134.236 19.1748 134.236 17.3497 134.236 15.5478C134.236 14.3233 134.236 13.0758 134.19 11.8514C134.144 11.4355 134.005 11.0197 133.959 10.5808ZM93.8303 10.6039C94.3154 10.4421 94.8237 10.2573 95.3319 10.2573C95.5167 10.7425 95.6322 11.2507 95.7015 11.759C96.1405 11.4817 96.5101 11.1121 96.9722 10.858C97.8501 10.3497 98.9128 9.9801 99.9062 10.3497C100.484 10.5577 101.061 10.8811 101.408 11.4124C101.685 11.7821 101.754 12.2903 101.801 12.7524C101.893 14.3926 101.87 16.0329 101.87 17.6963C101.87 18.8052 101.893 19.891 101.893 20.9999C101.339 21.023 100.784 21.023 100.23 20.9999C100.23 19.1979 100.183 17.3728 100.183 15.5709C100.16 14.5544 100.207 13.561 100.091 12.5445C99.9293 12.0593 99.4672 11.6666 98.959 11.6435C98.5893 11.6204 98.1966 11.6204 97.827 11.759C97.0415 12.0593 96.3253 12.5444 95.6784 13.0758C95.6553 15.7095 95.6784 18.3662 95.6784 20.9999C95.1933 20.9999 94.7082 21.023 94.223 20.9999C94.223 19.4983 94.1768 17.9966 94.1768 16.4949C94.1537 14.9471 94.1768 13.4223 94.0844 11.8745C94.0613 11.4355 93.9227 11.0197 93.8303 10.6039Z" fill="#FCFCFC"/>
</svg>
